<svg id="Layer_1" data-name="Layer 1" xmlns="http://www.w3.org/2000/svg" viewBox="0 0 400 400">
  <title>e8f95a0c-1952-4d25-a35c-f3fb75968565</title>
  <path d="M200,0C89.543,0,0,89.543,0,200S89.543,400,200,400s200-89.543,200-200S310.457,0,200,0ZM300.448,162.081q.143,3.1.138,6.233c0,63.708-48.5,137.179-137.18,137.179A136.5,136.5,0,0,1,89.5,283.837a98.149,98.149,0,0,0,11.5.668,96.747,96.747,0,0,0,59.881-20.639,48.268,48.268,0,0,1-45.041-33.487,48.139,48.139,0,0,0,21.773-.826,48.235,48.235,0,0,1-38.681-47.268c0-.212,0-.414.011-.615a47.86,47.86,0,0,0,21.837,6.031,48.251,48.251,0,0,1-14.925-64.365,136.88,136.88,0,0,0,99.379,50.373A48.244,48.244,0,0,1,287.4,129.74a96.625,96.625,0,0,0,30.614-11.7,48.38,48.38,0,0,1-21.2,26.671,96.241,96.241,0,0,0,27.688-7.59A98.1,98.1,0,0,1,300.448,162.081Z"/>
</svg>
